<svg width="27" height="24" viewBox="0 0 27 24" fill="none" xmlns="http://www.w3.org/2000/svg">
<path fill-rule="evenodd" clip-rule="evenodd" d="M20.8174 1C20.8174 1.26522 20.7073 1.51957 20.5112 1.70711C20.3152 1.89464 20.0493 2 19.772 2L3.04559 2C2.76833 2 2.50243 1.89464 2.30638 1.70711C2.11032 1.51957 2.00019 1.26522 2.00019 1C2.00019 0.734784 2.11032 0.48043 2.30638 0.292893C2.50243 0.105357 2.76833 0 3.04559 0L19.772 0C20.0493 0 20.3152 0.105357 20.5112 0.292893C20.7073 0.48043 20.8174 0.734784 20.8174 1Z" fill="white"/>
<path d="M20.0014 1L25.2926 8" stroke="white" stroke-width="2" stroke-linecap="round" stroke-linejoin="round"/>
<path fill-rule="evenodd" clip-rule="evenodd" d="M17.0002 11C17.0002 11.2652 16.9358 11.5196 16.8212 11.7071C16.7066 11.8946 16.5511 12 16.3891 12L6.61129 12C6.44922 12 6.29378 11.8946 6.17917 11.7071C6.06457 11.5196 6.00018 11.2652 6.00018 11C6.00018 10.7348 6.06457 10.4804 6.17917 10.2929C6.29378 10.1054 6.44922 10 6.61129 10L16.3891 10C16.5511 10 16.7066 10.1054 16.8212 10.2929C16.9358 10.4804 17.0002 10.7348 17.0002 11Z" fill="white"/>
<path fill-rule="evenodd" clip-rule="evenodd" d="M18.0002 22.8571C18.0002 22.554 17.8948 22.2633 17.7073 22.049C17.5198 21.8347 17.2654 21.7143 17.0002 21.7143L1.00018 21.7143C0.734967 21.7143 0.480612 21.8347 0.293076 22.049C0.105539 22.2633 0.000183105 22.554 0.000183105 22.8571C0.000183105 23.1602 0.105539 23.4509 0.293076 23.6653C0.480612 23.8796 0.734967 24 1.00018 24L17.0002 24C17.2654 24 17.5198 23.8796 17.7073 23.6653C17.8948 23.4509 18.0002 23.1602 18.0002 22.8571Z" fill="white"/>
<path d="M17.0002 23L25.0002 17" stroke="white" stroke-width="2" stroke-linecap="round" stroke-linejoin="round"/>
<path d="M1.00018 22L8.00018 9" stroke="white" stroke-width="2" stroke-linecap="round" stroke-linejoin="round"/>
</svg>
