<svg width="14" height="25" viewBox="0 0 14 25" fill="none" xmlns="http://www.w3.org/2000/svg">
<path fill-rule="evenodd" clip-rule="evenodd" d="M13 18C12.7348 18 12.4805 17.8946 12.2929 17.7071C12.1054 17.5196 12 17.2652 12 17L12 1C12 0.734784 12.1054 0.480429 12.2929 0.292892C12.4805 0.105356 12.7348 0 13 0C13.2652 0 13.5196 0.105356 13.7071 0.292892C13.8947 0.480429 14 0.734784 14 1L14 17C14 17.2652 13.8947 17.5196 13.7071 17.7071C13.5196 17.8946 13.2652 18 13 18Z" fill="white"/>
<path d="M13 17L7.00003 24" stroke="white" stroke-width="2" stroke-linecap="round" stroke-linejoin="round"/>
<path fill-rule="evenodd" clip-rule="evenodd" d="M4.00003 21C3.73481 21 3.48046 20.9122 3.29292 20.7559C3.10539 20.5996 3.00003 20.3877 3.00003 20.1667L3.00003 6.83333C3.00003 6.61232 3.10539 6.40036 3.29292 6.24408C3.48046 6.0878 3.73481 6 4.00003 6C4.26525 6 4.5196 6.0878 4.70714 6.24408C4.89467 6.40036 5.00003 6.61232 5.00003 6.83333L5.00003 20.1667C5.00003 20.3877 4.89467 20.5996 4.70714 20.7559C4.5196 20.9122 4.26525 21 4.00003 21Z" fill="white"/>
<path fill-rule="evenodd" clip-rule="evenodd" d="M7.00003 25C6.73481 25 6.48046 24.9122 6.29292 24.7559C6.10539 24.5996 6.00003 24.3877 6.00003 24.1667L6.00003 10.8333C6.00003 10.6123 6.10539 10.4004 6.29292 10.2441C6.48046 10.0878 6.73481 10 7.00003 10C7.26525 10 7.5196 10.0878 7.70714 10.2441C7.89467 10.4004 8.00003 10.6123 8.00003 10.8333L8.00003 24.1667C8.00003 24.3877 7.89467 24.5996 7.70714 24.7559C7.5196 24.9122 7.26525 25 7.00003 25Z" fill="white"/>
<path fill-rule="evenodd" clip-rule="evenodd" d="M1.00003 18C1.26525 18 1.5196 17.8946 1.70714 17.7071C1.89467 17.5196 2.00003 17.2652 2.00003 17L2.00003 1C2.00003 0.734784 1.89467 0.480429 1.70714 0.292892C1.5196 0.105356 1.26525 0 1.00003 0C0.734814 0 0.48046 0.105356 0.292924 0.292892C0.105388 0.480429 3.05176e-05 0.734784 3.05176e-05 1L3.05176e-05 17C3.05176e-05 17.2652 0.105388 17.5196 0.292924 17.7071C0.48046 17.8946 0.734814 18 1.00003 18Z" fill="white"/>
<path d="M1.00003 17L7.00003 24" stroke="white" stroke-width="2" stroke-linecap="round" stroke-linejoin="round"/>
</svg>
