<svg width="25" height="30" viewBox="0 0 25 30" fill="none" xmlns="http://www.w3.org/2000/svg">
<path fill-rule="evenodd" clip-rule="evenodd" d="M18 1.00002C18 1.26523 17.8946 1.51959 17.7071 1.70712C17.5196 1.89466 17.2652 2.00002 17 2.00002L1 2.00002C0.734784 2.00002 0.480429 1.89466 0.292892 1.70712C0.105356 1.51959 0 1.26523 0 1.00002C0 0.734799 0.105356 0.480445 0.292892 0.292909C0.480429 0.105372 0.734784 1.52588e-05 1 1.52588e-05L17 1.52588e-05C17.2652 1.52588e-05 17.5196 0.105372 17.7071 0.292909C17.8946 0.480445 18 0.734799 18 1.00002Z" fill="white"/>
<path d="M17 1.00002L24 7.00002" stroke="white" stroke-width="2" stroke-linecap="round" stroke-linejoin="round"/>
<path fill-rule="evenodd" clip-rule="evenodd" d="M18 15C18 15.2652 17.9122 15.5196 17.7559 15.7071C17.5996 15.8947 17.3877 16 17.1667 16L3.83333 16C3.61232 16 3.40036 15.8947 3.24408 15.7071C3.0878 15.5196 3 15.2652 3 15C3 14.7348 3.0878 14.4804 3.24408 14.2929C3.40036 14.1054 3.61232 14 3.83333 14L17.1667 14C17.3877 14 17.5996 14.1054 17.7559 14.2929C17.9122 14.4804 18 14.7348 18 15Z" fill="white"/>
<path fill-rule="evenodd" clip-rule="evenodd" d="M18 29C18 28.7348 17.8946 28.4804 17.7071 28.2929C17.5196 28.1054 17.2652 28 17 28L1 28C0.734784 28 0.480429 28.1054 0.292892 28.2929C0.105356 28.4804 0 28.7348 0 29C0 29.2652 0.105356 29.5196 0.292892 29.7071C0.480429 29.8947 0.734784 30 1 30L17 30C17.2652 30 17.5196 29.8947 17.7071 29.7071C17.8946 29.5196 18 29.2652 18 29Z" fill="white"/>
<path d="M17 29L24 23" stroke="white" stroke-width="2" stroke-linecap="round" stroke-linejoin="round"/>
</svg>
